<svg width="69" height="48" viewBox="0 0 69 48" fill="none" xmlns="http://www.w3.org/2000/svg">
<g filter="url(#filter0_d)">
<rect x="5" y="1" width="59" height="38" rx="10" fill="white" stroke="black"/>
<path d="M15.5137 19.3838C15.5137 20.514 15.2539 21.4232 14.7344 22.1113C14.2148 22.7949 13.5176 23.1367 12.6426 23.1367C11.7083 23.1367 10.986 22.8063 10.4756 22.1455L10.4141 23H9.25195V12.5H10.5166V16.417C11.027 15.7835 11.7311 15.4668 12.6289 15.4668C13.5267 15.4668 14.2308 15.8063 14.7412 16.4854C15.2562 17.1644 15.5137 18.0941 15.5137 19.2744V19.3838ZM14.249 19.2402C14.249 18.3789 14.0827 17.7135 13.75 17.2441C13.4173 16.7747 12.9388 16.54 12.3145 16.54C11.4805 16.54 10.8812 16.9274 10.5166 17.7021V20.9014C10.904 21.6761 11.5078 22.0635 12.3281 22.0635C12.9342 22.0635 13.4059 21.8288 13.7432 21.3594C14.0804 20.89 14.249 20.1836 14.249 19.2402ZM19.4512 21.1475L21.1738 15.6035H22.5273L19.5537 24.1416C19.0934 25.3721 18.362 25.9873 17.3594 25.9873L17.1201 25.9668L16.6484 25.8779V24.8525L16.9902 24.8799C17.4186 24.8799 17.7513 24.7933 17.9883 24.6201C18.2298 24.4469 18.4281 24.1302 18.583 23.6699L18.8633 22.918L16.2246 15.6035H17.6055L19.4512 21.1475Z" fill="black"/>
<path d="M27.9648 26.5635C26.8392 26.2399 26.0189 25.8434 25.5039 25.374C24.9935 24.9001 24.7383 24.3167 24.7383 23.624C24.7383 22.8402 25.0505 22.193 25.6748 21.6826C26.3037 21.1676 27.1195 20.9102 28.1221 20.9102C28.8057 20.9102 29.4141 21.0423 29.9473 21.3066C30.485 21.571 30.8997 21.9355 31.1914 22.4004C31.4876 22.8652 31.6357 23.3734 31.6357 23.9248H30.3164C30.3164 23.3232 30.125 22.8516 29.7422 22.5098C29.3594 22.1634 28.8193 21.9902 28.1221 21.9902C27.4749 21.9902 26.9691 22.1338 26.6045 22.4209C26.2445 22.7035 26.0645 23.0977 26.0645 23.6035C26.0645 24.0091 26.2354 24.3532 26.5771 24.6357C26.9235 24.9137 27.5091 25.1689 28.334 25.4014C29.1634 25.6338 29.8105 25.8913 30.2754 26.1738C30.7448 26.4518 31.0911 26.7777 31.3145 27.1514C31.5423 27.5251 31.6562 27.9648 31.6562 28.4707C31.6562 29.2773 31.3418 29.9245 30.7129 30.4121C30.084 30.8952 29.2432 31.1367 28.1904 31.1367C27.5068 31.1367 26.8688 31.0068 26.2764 30.7471C25.6839 30.4827 25.2259 30.1227 24.9023 29.667C24.5833 29.2113 24.4238 28.694 24.4238 28.1152H25.7432C25.7432 28.7168 25.9642 29.193 26.4062 29.5439C26.8529 29.8903 27.4476 30.0635 28.1904 30.0635C28.8831 30.0635 29.4141 29.9222 29.7832 29.6396C30.1523 29.3571 30.3369 28.972 30.3369 28.4844C30.3369 27.9967 30.166 27.6208 29.8242 27.3564C29.4824 27.0876 28.8626 26.8232 27.9648 26.5635ZM34.3359 23.6035L34.3701 24.4238C34.9124 23.7858 35.6439 23.4668 36.5645 23.4668C37.599 23.4668 38.3031 23.8633 38.6768 24.6562C38.9229 24.3008 39.2419 24.0137 39.6338 23.7949C40.0303 23.5762 40.4974 23.4668 41.0352 23.4668C42.6576 23.4668 43.4824 24.3258 43.5098 26.0439V31H42.2451V26.1191C42.2451 25.5905 42.1243 25.1963 41.8828 24.9365C41.6413 24.6722 41.2357 24.54 40.666 24.54C40.1966 24.54 39.807 24.6813 39.4971 24.9639C39.1872 25.2419 39.0072 25.6178 38.957 26.0918V31H37.6855V26.1533C37.6855 25.0778 37.1592 24.54 36.1064 24.54C35.277 24.54 34.7096 24.8932 34.4043 25.5996V31H33.1396V23.6035H34.3359ZM45.0889 27.2334C45.0889 26.5088 45.2301 25.8571 45.5127 25.2783C45.7998 24.6995 46.1963 24.2529 46.7021 23.9385C47.2126 23.624 47.7936 23.4668 48.4453 23.4668C49.4525 23.4668 50.266 23.8154 50.8857 24.5127C51.5101 25.21 51.8223 26.1374 51.8223 27.2949V27.3838C51.8223 28.1038 51.6833 28.751 51.4053 29.3252C51.1318 29.8949 50.7376 30.3392 50.2227 30.6582C49.7122 30.9772 49.1243 31.1367 48.459 31.1367C47.4564 31.1367 46.6429 30.7881 46.0186 30.0908C45.3988 29.3936 45.0889 28.4707 45.0889 27.3223V27.2334ZM46.3604 27.3838C46.3604 28.2041 46.5495 28.8626 46.9277 29.3594C47.3105 29.8561 47.821 30.1045 48.459 30.1045C49.1016 30.1045 49.612 29.8538 49.9902 29.3525C50.3685 28.8467 50.5576 28.1403 50.5576 27.2334C50.5576 26.4222 50.3639 25.766 49.9766 25.2646C49.5938 24.7588 49.0833 24.5059 48.4453 24.5059C47.821 24.5059 47.3174 24.7542 46.9346 25.251C46.5518 25.7477 46.3604 26.4587 46.3604 27.3838ZM55.7393 29.2842L57.5713 23.6035H58.8633L56.2109 31H55.2471L52.5674 23.6035H53.8594L55.7393 29.2842Z" fill="black"/>
<path d="M30.9932 15.4023H26.8232L25.8867 18H24.5332L28.334 8.04688H29.4824L33.29 18H31.9434L30.9932 15.4023ZM27.2197 14.3223H30.6035L28.9082 9.66699L27.2197 14.3223ZM35.8057 18H34.541V7.5H35.8057V18ZM40.9053 18.1367C39.9027 18.1367 39.0869 17.8086 38.458 17.1523C37.8291 16.4915 37.5146 15.6097 37.5146 14.5068V14.2744C37.5146 13.5407 37.6536 12.8867 37.9316 12.3125C38.2142 11.7337 38.6061 11.2826 39.1074 10.959C39.6133 10.6309 40.1602 10.4668 40.748 10.4668C41.7096 10.4668 42.457 10.7835 42.9902 11.417C43.5234 12.0505 43.79 12.9574 43.79 14.1377V14.6641H38.7793C38.7975 15.3932 39.0094 15.9834 39.415 16.4346C39.8252 16.8812 40.3447 17.1045 40.9736 17.1045C41.4202 17.1045 41.7985 17.0133 42.1084 16.8311C42.4183 16.6488 42.6895 16.4072 42.9219 16.1064L43.6943 16.708C43.0745 17.6605 42.1449 18.1367 40.9053 18.1367ZM40.748 11.5059C40.2376 11.5059 39.8092 11.6927 39.4629 12.0664C39.1165 12.4355 38.9023 12.9551 38.8203 13.625H42.5254V13.5293C42.4889 12.8867 42.3158 12.39 42.0059 12.0391C41.696 11.6836 41.2767 11.5059 40.748 11.5059ZM47.4473 14.5752H46.5723V18H45.3008V7.5H46.5723V13.5293H47.4336L49.5869 10.6035H51.084L48.5 13.9736L51.4395 18H49.9424L47.4473 14.5752ZM56.7031 16.0381C56.7031 15.6963 56.5732 15.432 56.3135 15.2451C56.0583 15.0537 55.6094 14.8896 54.9668 14.7529C54.3288 14.6162 53.8206 14.4521 53.4424 14.2607C53.0687 14.0693 52.7907 13.8415 52.6084 13.5771C52.4307 13.3128 52.3418 12.9984 52.3418 12.6338C52.3418 12.0277 52.597 11.515 53.1074 11.0957C53.6224 10.6764 54.2786 10.4668 55.0762 10.4668C55.9147 10.4668 56.5938 10.6833 57.1133 11.1162C57.6374 11.5492 57.8994 12.1029 57.8994 12.7773H56.6279C56.6279 12.431 56.4798 12.1325 56.1836 11.8818C55.8919 11.6312 55.5228 11.5059 55.0762 11.5059C54.6159 11.5059 54.2559 11.6061 53.9961 11.8066C53.7363 12.0072 53.6064 12.2692 53.6064 12.5928C53.6064 12.8981 53.7272 13.1283 53.9688 13.2832C54.2103 13.4382 54.6455 13.5863 55.2744 13.7275C55.9079 13.8688 56.4206 14.0374 56.8125 14.2334C57.2044 14.4294 57.4938 14.6663 57.6807 14.9443C57.8721 15.2178 57.9678 15.5527 57.9678 15.9492C57.9678 16.61 57.7035 17.141 57.1748 17.542C56.6462 17.9385 55.9603 18.1367 55.1172 18.1367C54.5247 18.1367 54.0007 18.0319 53.5449 17.8223C53.0892 17.6126 52.7314 17.321 52.4717 16.9473C52.2165 16.569 52.0889 16.1611 52.0889 15.7236H53.3535C53.3763 16.1475 53.5449 16.4847 53.8594 16.7354C54.1784 16.9814 54.5977 17.1045 55.1172 17.1045C55.5957 17.1045 55.9785 17.0088 56.2656 16.8174C56.5573 16.6214 56.7031 16.3617 56.7031 16.0381Z" fill="black"/>
<path d="M24.3418 19.3672H58.6582V20.0508H24.3418V19.3672Z" fill="black"/>
</g>
<defs>
<filter id="filter0_d" x="0.5" y="0.5" width="68" height="47" filterUnits="userSpaceOnUse" color-interpolation-filters="sRGB">
<feFlood flood-opacity="0" result="BackgroundImageFix"/>
<feColorMatrix in="SourceAlpha" type="matrix" values="0 0 0 0 0 0 0 0 0 0 0 0 0 0 0 0 0 0 127 0" result="hardAlpha"/>
<feOffset dy="4"/>
<feGaussianBlur stdDeviation="2"/>
<feComposite in2="hardAlpha" operator="out"/>
<feColorMatrix type="matrix" values="0 0 0 0 0 0 0 0 0 0 0 0 0 0 0 0 0 0 0.25 0"/>
<feBlend mode="normal" in2="BackgroundImageFix" result="effect1_dropShadow"/>
<feBlend mode="normal" in="SourceGraphic" in2="effect1_dropShadow" result="shape"/>
</filter>
</defs>
</svg>
